<svg xmlns="http://www.w3.org/2000/svg" width="168.641" height="168.641" viewBox="0 0 168.641 168.641">
  <path id="Icon_metro-cancel" data-name="Icon metro-cancel" d="M86.891,1.928a84.32,84.32,0,1,0,84.32,84.32,84.32,84.32,0,0,0-84.32-84.32Zm0,152.831a68.51,68.51,0,1,1,68.51-68.51,68.51,68.51,0,0,1-68.51,68.51Zm26.35-110.671-26.35,26.35-26.35-26.35L44.731,59.9l26.35,26.35L44.731,112.6l15.81,15.81,26.35-26.35,26.35,26.35,15.81-15.81L102.7,86.248l26.35-26.35Z" transform="translate(-2.571 -1.928)" fill="#fff"/>
</svg>
