<svg xmlns="http://www.w3.org/2000/svg" viewBox="0 0 199.37 235.33"><defs><style>.a{fill:#5d8199;}.b{fill:#f9b458;}.c{fill:#ffca85;}.d{fill:#7d9aad;}.e{fill:#fc9188;}.f{fill:#fb766a;}.g{fill:#edeeed;}.h{fill:#2a4671;}</style></defs><title>pink_robot</title><rect class="a" x="61.26" y="6.75" width="6.01" height="40.09"/><circle class="b" cx="64.26" cy="5.98" r="5.98"/><rect class="a" x="131.39" y="6.75" width="6.01" height="40.09"/><circle class="b" cx="134.39" cy="5.98" r="5.98"/><rect class="c" x="192.47" y="88.58" width="6.89" height="13.52"/><rect class="b" x="192.47" y="102.1" width="6.89" height="13.52"/><polygon class="a" points="183.57 102.1 174.68 102.1 174.68 125.73 192.47 125.73 192.47 115.62 192.47 102.1 183.57 102.1"/><polygon class="d" points="174.68 78.46 174.68 102.1 183.57 102.1 192.47 102.1 192.47 88.58 192.47 78.46 174.68 78.46"/><rect class="c" y="88.58" width="6.89" height="13.52"/><rect class="b" y="102.1" width="6.89" height="13.52"/><polygon class="a" points="15.79 102.1 24.69 102.1 24.69 125.73 6.89 125.73 6.89 115.62 6.89 102.1 15.79 102.1"/><polygon class="d" points="24.69 78.46 24.69 102.1 15.79 102.1 6.89 102.1 6.89 88.58 6.89 78.46 24.69 78.46"/><rect class="d" x="122.72" y="207.71" width="19.15" height="7.8"/><rect class="a" x="141.87" y="207.71" width="19.15" height="7.8"/><rect class="c" x="122.72" y="215.51" width="19.15" height="7.8"/><rect class="b" x="141.87" y="215.51" width="19.15" height="7.8"/><rect class="d" x="122.72" y="192.12" width="19.15" height="7.8"/><rect class="a" x="141.87" y="192.12" width="19.15" height="7.8"/><rect class="c" x="122.72" y="199.92" width="19.15" height="7.8"/><rect class="b" x="141.87" y="199.92" width="19.15" height="7.8"/><rect class="d" x="37.12" y="207.71" width="19.15" height="7.8"/><rect class="a" x="56.26" y="207.71" width="19.15" height="7.8"/><rect class="c" x="37.12" y="215.51" width="19.15" height="7.8"/><rect class="b" x="56.26" y="215.51" width="19.15" height="7.8"/><rect class="d" x="37.12" y="192.12" width="19.15" height="7.8"/><rect class="a" x="56.26" y="192.12" width="19.15" height="7.8"/><rect class="c" x="37.12" y="199.92" width="19.15" height="7.8"/><rect class="b" x="56.26" y="199.92" width="19.15" height="7.8"/><path class="e" d="M639.65,474.15V315.05a85.08,85.08,0,0,0-85.08,85.08v74h85.08Z" transform="translate(-540.32 -282.02)"/><path class="f" d="M724.72,474.15v-74a85.08,85.08,0,0,0-85.08-85.08V474.15h85.08Z" transform="translate(-540.32 -282.02)"/><path class="a" d="M562.91,457.93v-3.18a34.53,34.53,0,0,1,69.07,0v3.18H562.91Z" transform="translate(-540.32 -282.02)"/><path class="g" d="M597.45,423.4a31.35,31.35,0,0,0-31.35,31.35h62.7A31.35,31.35,0,0,0,597.45,423.4Z" transform="translate(-540.32 -282.02)"/><polygon class="h" points="60.02 172.14 67.46 150.44 66.39 147.24 63.59 149.11 55.68 172.14 60.02 172.14"/><path class="h" d="M597.45,449a5.73,5.73,0,0,0-5.72,5.73h11.45A5.72,5.72,0,0,0,597.45,449Z" transform="translate(-540.32 -282.02)"/><rect class="b" x="128.24" y="140.38" width="32.06" height="32.06"/><polygon class="g" points="128.24 140.38 128.24 172.44 160.31 140.38 128.24 140.38"/><circle class="g" cx="129.24" cy="89.38" r="20.97"/><path class="b" d="M669.56,385.67a14.27,14.27,0,1,1,14.27-14.27A14.28,14.28,0,0,1,669.56,385.67Z" transform="translate(-540.32 -282.02)"/><path class="h" d="M669.56,381.68a10.27,10.27,0,1,1,10.27-10.27A10.28,10.28,0,0,1,669.56,381.68Z" transform="translate(-540.32 -282.02)"/><path class="e" d="M669.56,348.82A22.61,22.61,0,0,0,647,371.4h45.16A22.61,22.61,0,0,0,669.56,348.82Z" transform="translate(-540.32 -282.02)"/><circle class="g" cx="69.47" cy="89.11" r="13.84"/><path class="b" d="M609.79,380.55a9.42,9.42,0,1,1,9.42-9.42A9.43,9.43,0,0,1,609.79,380.55Z" transform="translate(-540.32 -282.02)"/><circle class="h" cx="69.47" cy="89.11" r="6.78"/><path class="f" d="M609.79,356.23a14.92,14.92,0,0,0-14.9,14.9h29.81A14.92,14.92,0,0,0,609.79,356.23Z" transform="translate(-540.32 -282.02)"/><path class="e" d="M628,517.36a34.51,34.51,0,0,0-62.86,0H628Z" transform="translate(-540.32 -282.02)"/><path class="f" d="M713.61,517.36a34.51,34.51,0,0,0-62.86,0h62.86Z" transform="translate(-540.32 -282.02)"/></svg>